<?xml version="1.0" encoding="UTF-8"?>
<svg version="1.1" xmlns="http://www.w3.org/2000/svg" width="69" height="57">
<path d="M0 0 C2.09250362 -0.01188647 4.1820455 -0.06106161 6.27392578 -0.11157227 C7.61115103 -0.12103873 8.94839433 -0.1282727 10.28564453 -0.13305664 C12.10298096 -0.15323853 12.10298096 -0.15323853 13.95703125 -0.17382812 C18.13169731 0.59043773 19.57665456 2.1954964 22.23095703 5.42553711 C23.64342454 8.25047213 23.25413291 10.53024958 23.15283203 13.68334961 C23.11416016 15.58213867 23.11416016 15.58213867 23.07470703 17.51928711 C23.01765789 20.18503771 22.93495072 22.84638167 22.84033203 25.51147461 C22.71139101 33.4735824 23.163553 38.16299062 28.23095703 44.42553711 C25.63220828 43.98003732 23.4250376 43.51980481 21.04345703 42.36303711 C16.81409481 40.9532497 12.65033897 41.27107327 8.23095703 41.42553711 C8.19228516 42.31305664 8.19228516 42.31305664 8.15283203 43.21850586 C7.77739016 48.44909377 7.21953239 51.67158383 3.23095703 55.42553711 C-1.89050778 57.13269205 -7.28314119 56.61013932 -12.64404297 56.61303711 C-14.42101563 56.63140625 -14.42101563 56.63140625 -16.23388672 56.65014648 C-17.37728516 56.65208008 -18.52068359 56.65401367 -19.69873047 56.65600586 C-21.26469971 56.66216919 -21.26469971 56.66216919 -22.86230469 56.66845703 C-25.86754681 56.41730501 -28.00533481 55.56923357 -30.76904297 54.42553711 C-32.8523763 55.25887044 -32.8523763 55.25887044 -34.76904297 56.42553711 C-36.08904297 56.42553711 -37.40904297 56.42553711 -38.76904297 56.42553711 C-38.76904297 54.44553711 -38.76904297 52.46553711 -38.76904297 50.42553711 C-37.44904297 49.76553711 -36.12904297 49.10553711 -34.76904297 48.42553711 C-34.75446045 47.69963379 -34.73987793 46.97373047 -34.72485352 46.22583008 C-34.65009438 42.91687979 -34.55352507 39.60890759 -34.45654297 36.30053711 C-34.43398438 35.15842773 -34.41142578 34.01631836 -34.38818359 32.83959961 C-34.04300275 22.04485329 -34.04300275 22.04485329 -30.76904297 17.42553711 C-27.5652428 15.28967033 -26.7496433 15.19421536 -23.08154297 15.30053711 C-21.86917969 15.32760742 -21.86917969 15.32760742 -20.63232422 15.35522461 C-19.71 15.3900293 -19.71 15.3900293 -18.76904297 15.42553711 C-18.83091797 14.39428711 -18.89279297 13.36303711 -18.95654297 12.30053711 C-18.75483681 8.13194321 -17.97065953 5.93181534 -15.76904297 2.42553711 C-11.00369743 -0.75135992 -5.57312302 0.01500607 0 0 Z M-10.76904297 6.42553711 C-13.0591795 9.86074191 -12.9474727 11.41086811 -12.76904297 15.42553711 C-11.80482422 15.47452148 -10.84060547 15.52350586 -9.84716797 15.57397461 C-8.58388672 15.64874023 -7.32060547 15.72350586 -6.01904297 15.80053711 C-4.76607422 15.87014648 -3.51310547 15.93975586 -2.22216797 16.01147461 C2.86195334 16.62110907 2.86195334 16.62110907 5.23095703 18.42553711 C7.22962359 22.10695196 7.58299796 25.59815784 7.85595703 29.73803711 C7.93072266 30.80666992 8.00548828 31.87530273 8.08251953 32.97631836 C8.13150391 33.78456055 8.18048828 34.59280273 8.23095703 35.42553711 C11.53095703 35.75553711 14.83095703 36.08553711 18.23095703 36.42553711 C18.12131026 31.98751715 17.99062549 27.55036275 17.85595703 23.11303711 C17.82501953 21.85040039 17.79408203 20.58776367 17.76220703 19.28686523 C17.72353516 18.07836914 17.68486328 16.86987305 17.64501953 15.62475586 C17.61359863 14.50931396 17.58217773 13.39387207 17.54980469 12.24462891 C17.42570803 9.22184925 17.42570803 9.22184925 15.23095703 6.42553711 C12.55166753 5.95868896 12.55166753 5.95868896 9.41845703 6.02709961 C8.26087891 6.02323242 7.10330078 6.01936523 5.91064453 6.01538086 C4.69634766 6.02698242 3.48205078 6.03858398 2.23095703 6.05053711 C0.40951172 6.03313477 0.40951172 6.03313477 -1.44873047 6.01538086 C-3.18509766 6.02118164 -3.18509766 6.02118164 -4.95654297 6.02709961 C-6.555625 6.03217529 -6.555625 6.03217529 -8.18701172 6.03735352 C-9.46511719 6.22950439 -9.46511719 6.22950439 -10.76904297 6.42553711 Z M-26.44555664 23.15209961 C-27.93508691 25.71076145 -28.14337683 27.11591895 -28.13232422 30.05053711 C-28.13167969 30.92194336 -28.13103516 31.79334961 -28.13037109 32.69116211 C-28.11425781 33.59350586 -28.09814453 34.49584961 -28.08154297 35.42553711 C-28.08476562 36.32788086 -28.08798828 37.23022461 -28.09130859 38.15991211 C-28.08038715 44.0723387 -28.08038715 44.0723387 -25.76904297 49.42553711 C-21.89842175 51.36084772 -17.15181355 50.69746115 -12.89404297 50.73803711 C-11.88728516 50.76704102 -10.88052734 50.79604492 -9.84326172 50.82592773 C-4.15595042 50.9448577 -4.15595042 50.9448577 0.92626953 48.71850586 C2.44216173 46.054348 2.56635818 44.44414743 2.23095703 41.42553711 C1.35052734 41.3881543 0.47009766 41.35077148 -0.43701172 41.31225586 C-1.59845703 41.24651367 -2.75990234 41.18077148 -3.95654297 41.11303711 C-5.10509766 41.0550293 -6.25365234 40.99702148 -7.43701172 40.93725586 C-10.99655435 40.39059691 -12.93721367 39.6236 -15.76904297 37.42553711 C-18.03899791 34.22253321 -18.14276095 31.02852812 -18.39404297 27.17553711 C-18.50619141 25.55905273 -18.50619141 25.55905273 -18.62060547 23.90991211 C-18.66958984 23.09006836 -18.71857422 22.27022461 -18.76904297 21.42553711 C-23.0633019 20.89064777 -23.0633019 20.89064777 -26.44555664 23.15209961 Z M-12.76904297 21.42553711 C-13.29042188 27.93628167 -13.29042188 27.93628167 -11.45654297 34.05053711 C-7.09141576 36.28385801 -2.57530325 35.72385671 2.23095703 35.42553711 C2.31249637 33.84307004 2.37039261 32.25937438 2.41845703 30.67553711 C2.45326172 29.79381836 2.48806641 28.91209961 2.52392578 28.00366211 C2.16403372 24.83661199 1.60425849 23.56150842 -0.76904297 21.42553711 C-3.7374016 20.94145777 -3.7374016 20.94145777 -6.95654297 21.17553711 C-8.04322266 21.21163086 -9.12990234 21.24772461 -10.24951172 21.28491211 C-11.08095703 21.33131836 -11.91240234 21.37772461 -12.76904297 21.42553711 Z " fill="#F0A201" transform="translate(39.76904296875,0.574462890625)"/>
<path d="M0 0 C2.09250362 -0.01188647 4.1820455 -0.06106161 6.27392578 -0.11157227 C7.61115103 -0.12103873 8.94839433 -0.1282727 10.28564453 -0.13305664 C12.10298096 -0.15323853 12.10298096 -0.15323853 13.95703125 -0.17382812 C18.13169731 0.59043773 19.57665456 2.1954964 22.23095703 5.42553711 C23.64342454 8.25047213 23.25413291 10.53024958 23.15283203 13.68334961 C23.11416016 15.58213867 23.11416016 15.58213867 23.07470703 17.51928711 C23.01765789 20.18503771 22.93495072 22.84638167 22.84033203 25.51147461 C22.71139101 33.4735824 23.163553 38.16299062 28.23095703 44.42553711 C25.62881095 43.97945492 23.38035639 43.49386117 20.97119141 42.39208984 C17.66759678 41.22682513 15.07280882 41.24629201 11.57470703 41.33569336 C10.30498047 41.35567383 9.03525391 41.3756543 7.72705078 41.39624023 C5.06289573 41.45744028 2.39882752 41.52254486 -0.26513672 41.59155273 C-1.53486328 41.61024414 -2.80458984 41.62893555 -4.11279297 41.64819336 C-5.26972656 41.6766333 -6.42666016 41.70507324 -7.61865234 41.734375 C-11.14647751 41.38853659 -12.94340939 40.52214717 -15.76904297 38.42553711 C-18.70786356 34.66895774 -19.1350998 31.88744448 -19.01904297 27.17553711 C-19.00357422 26.11850586 -18.98810547 25.06147461 -18.97216797 23.97241211 C-18.76904297 21.42553711 -18.76904297 21.42553711 -17.76904297 20.42553711 C-16.10287182 20.38489879 -14.43516202 20.38281611 -12.76904297 20.42553711 C-12.73166016 21.18479492 -12.69427734 21.94405273 -12.65576172 22.72631836 C-12.59001953 23.72018555 -12.52427734 24.71405273 -12.45654297 25.73803711 C-12.36953125 27.21723633 -12.36953125 27.21723633 -12.28076172 28.72631836 C-11.69182858 31.83282827 -11.27386304 32.57149214 -8.76904297 34.42553711 C-5.96617006 34.93161071 -5.96617006 34.93161071 -2.78857422 34.93725586 C-1.62519531 34.97270508 -0.46181641 35.0081543 0.73681641 35.04467773 C1.95175781 35.06723633 3.16669922 35.08979492 4.41845703 35.11303711 C6.25827148 35.16427734 6.25827148 35.16427734 8.13525391 35.21655273 C11.16706381 35.29913121 14.19858082 35.3682508 17.23095703 35.42553711 C17.09257907 31.13359565 16.94399764 26.84206782 16.79345703 22.55053711 C16.75414062 21.3272168 16.71482422 20.10389648 16.67431641 18.84350586 C16.63242187 17.6769043 16.59052734 16.51030273 16.54736328 15.30834961 C16.49237671 13.69017334 16.49237671 13.69017334 16.4362793 12.03930664 C16.39719061 9.44484175 16.39719061 9.44484175 15.23095703 7.42553711 C6.65095703 7.42553711 -1.92904297 7.42553711 -10.76904297 7.42553711 C-11.42904297 10.06553711 -12.08904297 12.70553711 -12.76904297 15.42553711 C-14.74904297 15.42553711 -16.72904297 15.42553711 -18.76904297 15.42553711 C-19.08337702 10.18663625 -18.57683153 6.89720038 -15.76904297 2.42553711 C-11.00369743 -0.75135992 -5.57312302 0.01500607 0 0 Z " fill="#D1462B" transform="translate(39.76904296875,0.574462890625)"/>
</svg>
